# Blender v2.62 (sub 0) OBJ File: 'simple-demo.blend'
# www.blender.org
mtllib simple-demo.mtl
o Cube.044
v -7.101000 1.996748 5.479156
v -7.101000 1.996748 8.501481
v -8.101000 1.996748 8.501481
v -8.101000 1.996748 5.479156
v -7.101000 2.146748 5.479157
v -7.101000 2.146748 8.501482
v -8.101000 2.146748 8.501480
v -8.101000 2.146748 5.479156
vn 0.000000 -1.000000 0.000000
vn 0.000000 1.000000 0.000000
vn 1.000000 -0.000002 0.000000
vn -0.000001 0.000000 1.000000
vn -1.000000 0.000000 0.000000
vn 0.000001 0.000006 -1.000000
usemtl Plain
s off
f 1//1 2//1 3//1 4//1
f 5//2 8//2 7//2 6//2
f 1//3 5//3 6//3 2//3
f 2//4 6//4 7//4 3//4
f 3//5 7//5 8//5 4//5
f 5//6 1//6 4//6 8//6
o Cube.043
v -7.101000 0.000000 4.921084
v -7.101000 0.000000 5.921083
v -8.101000 0.000000 5.921083
v -8.101000 0.000000 4.921083
v -7.101000 2.000000 4.921084
v -7.101000 2.000000 5.921083
v -8.101000 2.000000 5.921083
v -8.101000 2.000000 4.921083
vn 1.000000 -0.000000 0.000000
vn -0.000000 -0.000000 1.000000
vn 0.000000 -0.000000 -1.000000
usemtl Plain
s off
f 9//1 10//1 11//1 12//1
f 13//2 16//2 15//2 14//2
f 9//7 13//7 14//7 10//7
f 10//8 14//8 15//8 11//8
f 11//5 15//5 16//5 12//5
f 13//9 9//9 12//9 16//9
o Cube.042
v -8.562001 4.000084 1.067550
v -6.562002 4.000084 1.067549
v -6.561998 1.969644 5.414816
v -8.561998 1.969644 5.414817
v -8.562001 4.150674 1.137884
v -6.562001 4.150674 1.137885
v -6.561998 2.120234 5.485151
v -8.561998 2.120234 5.485152
vn -0.000000 -0.906046 -0.423179
vn 0.000000 0.906046 0.423179
vn -0.000000 0.423180 -0.906046
vn 1.000000 -0.000002 -0.000002
vn 0.000000 -0.423182 0.906045
vn -1.000000 -0.000000 0.000001
usemtl Plain
s off
f 17//10 18//10 19//10 20//10
f 21//11 24//11 23//11 22//11
f 17//12 21//12 22//12 18//12
f 18//13 22//13 23//13 19//13
f 19//14 23//14 24//14 20//14
f 21//15 17//15 20//15 24//15
o Cube.041
v -8.570001 4.032568 -1.209274
v -6.570001 4.032568 -1.209276
v -6.570000 4.032568 1.213673
v -8.570000 4.032568 1.213674
v -8.570001 4.182567 -1.209275
v -6.570000 4.182567 -1.209275
v -6.570000 4.182567 1.213674
v -8.570000 4.182567 1.213674
vn 1.000000 -0.000003 -0.000000
vn 0.000000 -0.000002 1.000000
usemtl Plain
s off
f 25//1 26//1 27//1 28//1
f 29//2 32//2 31//2 30//2
f 25//9 29//9 30//9 26//9
f 26//16 30//16 31//16 27//16
f 27//17 31//17 32//17 28//17
f 29//5 25//5 28//5 32//5
o Cube.040
v -7.101000 0.000000 -0.026000
v -7.101000 0.000000 0.974000
v -8.101000 0.000000 0.974000
v -8.101000 0.000000 -0.026000
v -7.101000 4.000000 -0.026000
v -7.101000 4.000000 0.974000
v -8.101000 4.000000 0.974000
v -8.101000 4.000000 -0.026000
usemtl Plain
s off
f 33//1 34//1 35//1 36//1
f 37//2 40//2 39//2 38//2
f 33//7 37//7 38//7 34//7
f 34//8 38//8 39//8 35//8
f 35//5 39//5 40//5 36//5
f 37//9 33//9 36//9 40//9
o Cube.039
v -7.101000 0.000000 -1.026000
v -7.101000 0.000000 -0.026000
v -8.101000 0.000000 -0.026000
v -8.101000 0.000000 -1.026000
v -7.101000 4.000000 -1.026000
v -7.101000 4.000000 -0.026000
v -8.101000 4.000000 -0.026000
v -8.101000 4.000000 -1.026000
usemtl Plain
s off
f 41//1 42//1 43//1 44//1
f 45//2 48//2 47//2 46//2
f 41//7 45//7 46//7 42//7
f 42//8 46//8 47//8 43//8
f 43//5 47//5 48//5 44//5
f 45//9 41//9 44//9 48//9
o Cube.038
v -6.960742 4.000084 -0.927109
v -8.930358 4.000084 -1.274401
v -8.175471 1.969644 -5.555626
v -6.205855 1.969644 -5.208332
v -6.948529 4.150674 -0.996374
v -8.918145 4.150674 -1.343669
v -8.163258 2.120234 -5.624892
v -6.193642 2.120234 -5.277599
vn -0.073484 -0.906046 0.416750
vn 0.073484 0.906046 -0.416750
vn -0.157332 0.423180 0.892281
vn -0.984808 -0.000002 -0.173646
vn 0.157332 -0.423181 -0.892281
vn 0.984808 0.000002 0.173645
usemtl Plain
s off
f 49//18 50//18 51//18 52//18
f 53//19 56//19 55//19 54//19
f 49//20 53//20 54//20 50//20
f 50//21 54//21 55//21 51//21
f 51//22 55//22 56//22 52//22
f 53//23 49//23 52//23 56//23
o Cube.037
v -7.101000 0.000000 -5.974000
v -7.101000 0.000000 -4.974000
v -8.101000 0.000000 -4.974000
v -8.101000 0.000000 -5.974000
v -7.101000 2.000000 -5.974000
v -7.101000 2.000000 -4.974000
v -8.101000 2.000000 -4.974000
v -8.101000 2.000000 -5.974000
usemtl Plain
s off
f 57//1 58//1 59//1 60//1
f 61//2 64//2 63//2 62//2
f 57//7 61//7 62//7 58//7
f 58//8 62//8 63//8 59//8
f 59//5 63//5 64//5 60//5
f 61//9 57//9 60//9 64//9
o Cube.036
v -7.101000 1.996748 -8.501162
v -7.101000 1.996748 -5.478837
v -8.101000 1.996748 -5.478837
v -8.101000 1.996748 -8.501163
v -7.101000 2.146748 -8.501162
v -7.101000 2.146748 -5.478837
v -8.101000 2.146748 -5.478838
v -8.101000 2.146748 -8.501163
vn -0.000001 -0.000002 1.000000
vn 0.000001 -0.000000 -1.000000
usemtl Plain
s off
f 65//1 66//1 67//1 68//1
f 69//2 72//2 71//2 70//2
f 65//3 69//3 70//3 66//3
f 66//24 70//24 71//24 67//24
f 67//5 71//5 72//5 68//5
f 69//25 65//25 68//25 72//25
o Cube.035
v 8.101000 1.996748 -8.501162
v 8.101000 1.996748 -5.478837
v 7.101000 1.996748 -5.478837
v 7.101000 1.996748 -8.501163
v 8.101000 2.146748 -8.501162
v 8.100999 2.146748 -5.478837
v 7.101000 2.146748 -5.478838
v 7.101000 2.146748 -8.501163
vn 1.000000 0.000003 0.000000
usemtl Plain
s off
f 73//1 74//1 75//1 76//1
f 77//2 80//2 79//2 78//2
f 73//26 77//26 78//26 74//26
f 74//24 78//24 79//24 75//24
f 75//5 79//5 80//5 76//5
f 77//25 73//25 76//25 80//25
o Cube.034
v 8.162912 4.000084 -0.927109
v 6.193296 4.000084 -1.274401
v 6.948183 1.969644 -5.555626
v 8.917799 1.969644 -5.208332
v 8.175125 4.150674 -0.996374
v 6.205510 4.150674 -1.343669
v 6.960397 2.120234 -5.624892
v 8.930013 2.120234 -5.277599
vn -0.984808 0.000001 -0.173647
vn 0.157332 -0.423181 -0.892280
vn 0.984808 0.000001 0.173646
usemtl Plain
s off
f 81//18 82//18 83//18 84//18
f 85//19 88//19 87//19 86//19
f 81//20 85//20 86//20 82//20
f 82//27 86//27 87//27 83//27
f 83//28 87//28 88//28 84//28
f 85//29 81//29 84//29 88//29
o Cube.033
v 8.101000 1.996748 5.479156
v 8.101000 1.996748 8.501481
v 7.101000 1.996748 8.501481
v 7.101000 1.996748 5.479156
v 8.101000 2.146748 5.479157
v 8.100999 2.146748 8.501482
v 7.101000 2.146748 8.501480
v 7.101000 2.146748 5.479156
usemtl Plain
s off
f 89//1 90//1 91//1 92//1
f 93//2 96//2 95//2 94//2
f 89//26 93//26 94//26 90//26
f 90//4 94//4 95//4 91//4
f 91//5 95//5 96//5 92//5
f 93//6 89//6 92//6 96//6
o Cube.032
v 6.561653 4.000084 1.067550
v 8.561653 4.000084 1.067549
v 8.561656 1.969644 5.414816
v 6.561656 1.969644 5.414817
v 6.561654 4.150674 1.137884
v 8.561653 4.150674 1.137885
v 8.561656 2.120234 5.485151
v 6.561656 2.120234 5.485152
vn 1.000000 0.000000 -0.000001
vn -1.000000 0.000001 0.000001
usemtl Plain
s off
f 97//10 98//10 99//10 100//10
f 101//11 104//11 103//11 102//11
f 97//12 101//12 102//12 98//12
f 98//30 102//30 103//30 99//30
f 99//14 103//14 104//14 100//14
f 101//31 97//31 100//31 104//31
o Cube.031
v 6.570014 4.032568 -1.209274
v 8.570014 4.032568 -1.209276
v 8.570015 4.032568 1.213673
v 6.570015 4.032568 1.213674
v 6.570014 4.182567 -1.209275
v 8.570014 4.182567 -1.209275
v 8.570015 4.182567 1.213674
v 6.570015 4.182567 1.213674
vn -1.000000 0.000002 0.000000
usemtl Plain
s off
f 105//1 106//1 107//1 108//1
f 109//2 112//2 111//2 110//2
f 105//9 109//9 110//9 106//9
f 106//7 110//7 111//7 107//7
f 107//17 111//17 112//17 108//17
f 109//32 105//32 108//32 112//32
o Cube.030
v 8.101000 0.000000 -0.026000
v 8.101000 0.000000 0.974000
v 7.101000 0.000000 0.974000
v 7.101000 0.000000 -0.026000
v 8.101000 4.000000 -0.026000
v 8.100999 4.000000 0.974000
v 7.101000 4.000000 0.974000
v 7.101000 4.000000 -0.026000
usemtl Plain
s off
f 113//1 114//1 115//1 116//1
f 117//2 120//2 119//2 118//2
f 113//7 117//7 118//7 114//7
f 114//8 118//8 119//8 115//8
f 115//5 119//5 120//5 116//5
f 117//9 113//9 116//9 120//9
o Cube.029
v 8.101000 0.000000 -5.974000
v 8.101000 0.000000 -4.974000
v 7.101000 0.000000 -4.974000
v 7.101000 0.000000 -5.974000
v 8.101000 2.000000 -5.974000
v 8.100999 2.000000 -4.974000
v 7.101000 2.000000 -4.974000
v 7.101000 2.000000 -5.974000
usemtl Plain
s off
f 121//1 122//1 123//1 124//1
f 125//2 128//2 127//2 126//2
f 121//7 125//7 126//7 122//7
f 122//8 126//8 127//8 123//8
f 123//5 127//5 128//5 124//5
f 125//9 121//9 124//9 128//9
o Cube.028
v 8.101000 0.000000 -1.026000
v 8.101000 0.000000 -0.026000
v 7.101000 0.000000 -0.026000
v 7.101000 0.000000 -1.026000
v 8.101000 4.000000 -1.026000
v 8.100999 4.000000 -0.026000
v 7.101000 4.000000 -0.026000
v 7.101000 4.000000 -1.026000
usemtl Plain
s off
f 129//1 130//1 131//1 132//1
f 133//2 136//2 135//2 134//2
f 129//7 133//7 134//7 130//7
f 130//8 134//8 135//8 131//8
f 131//5 135//5 136//5 132//5
f 133//9 129//9 132//9 136//9
o Cube.027
v 8.101000 0.000000 4.921084
v 8.101000 0.000000 5.921083
v 7.101000 0.000000 5.921083
v 7.101000 0.000000 4.921083
v 8.101000 2.000000 4.921084
v 8.100999 2.000000 5.921083
v 7.101000 2.000000 5.921083
v 7.101000 2.000000 4.921083
usemtl Plain
s off
f 137//1 138//1 139//1 140//1
f 141//2 144//2 143//2 142//2
f 137//7 141//7 142//7 138//7
f 138//8 142//8 143//8 139//8
f 139//5 143//5 144//5 140//5
f 141//9 137//9 140//9 144//9
o Cube.026
v -7.281624 1.999654 8.485997
v -7.281621 1.999654 6.485998
v -3.433289 0.908637 6.486003
v -3.433292 0.908637 8.486002
v -7.240712 2.143967 8.485996
v -7.240707 2.143967 6.485997
v -3.392375 1.052950 6.486003
v -3.392378 1.052950 8.486002
vn -0.272754 -0.962084 -0.000000
vn 0.272754 0.962084 0.000000
vn -0.962084 0.272754 -0.000002
vn 0.000001 -0.000002 -1.000000
vn 0.962083 -0.272757 0.000002
vn -0.000000 0.000003 1.000000
usemtl Plain
s off
f 145//33 146//33 147//33 148//33
f 149//34 152//34 151//34 150//34
f 145//35 149//35 150//35 146//35
f 146//36 150//36 151//36 147//36
f 147//37 151//37 152//37 148//37
f 149//38 145//38 148//38 152//38
o Cube.025
v -2.576000 -0.182962 3.746143
v -2.575999 1.047140 6.482352
v -0.575999 1.047137 6.482352
v -0.576002 -0.182965 3.746142
v -2.576001 -0.319773 3.807649
v -2.575998 0.910330 6.543858
v -0.575999 0.910326 6.543857
v -0.576001 -0.319776 3.807648
vn 0.000001 0.912070 -0.410034
vn -0.000001 -0.912070 0.410034
vn -1.000000 0.000001 0.000000
vn 0.000001 0.410036 0.912070
vn -0.000001 -0.410038 -0.912069
usemtl Plain
s off
f 153//39 154//39 155//39 156//39
f 157//40 160//40 159//40 158//40
f 153//41 157//41 158//41 154//41
f 154//42 158//42 159//42 155//42
f 155//30 159//30 160//30 156//30
f 157//43 153//43 156//43 160//43
o Cube.024
v 0.576261 -0.182962 3.746143
v 0.576263 1.047140 6.482352
v 2.576262 1.047137 6.482352
v 2.576260 -0.182965 3.746142
v 0.576261 -0.319773 3.807649
v 0.576263 0.910330 6.543858
v 2.576262 0.910326 6.543857
v 2.576260 -0.319776 3.807648
vn 0.000001 0.410036 0.912069
usemtl Plain
s off
f 161//39 162//39 163//39 164//39
f 165//40 168//40 167//40 166//40
f 161//41 165//41 166//41 162//41
f 162//44 166//44 167//44 163//44
f 163//30 167//30 168//30 164//30
f 165//43 161//43 164//43 168//43
o Cube.023
v 0.997766 0.000000 6.995000
v 0.997766 0.000000 7.994999
v -0.002234 0.000000 7.994999
v -0.002233 0.000000 6.995000
v 0.997766 1.000000 6.995000
v 0.997766 1.000000 7.995000
v -0.002234 1.000000 7.994999
v -0.002233 1.000000 6.995000
usemtl Plain
s off
f 169//1 170//1 171//1 172//1
f 173//2 176//2 175//2 174//2
f 169//7 173//7 174//7 170//7
f 170//8 174//8 175//8 171//8
f 171//5 175//5 176//5 172//5
f 173//9 169//9 172//9 176//9
o Cube.022
v -0.009931 0.000000 6.924000
v -0.009931 0.000000 7.923999
v -1.009930 0.000000 7.923999
v -1.009930 0.000000 6.924000
v -0.009930 1.000000 6.924000
v -0.009931 1.000000 7.924000
v -1.009930 1.000000 7.923999
v -1.009930 1.000000 6.924000
usemtl Plain
s off
f 177//1 178//1 179//1 180//1
f 181//2 184//2 183//2 182//2
f 177//7 181//7 182//7 178//7
f 178//8 182//8 183//8 179//8
f 179//5 183//5 184//5 180//5
f 181//9 177//9 180//9 184//9
o Cube.021
v -1.979782 0.000004 6.946001
v -1.979782 0.000004 7.946000
v -2.979782 0.000004 7.946000
v -2.979782 0.000004 6.946000
v -1.979782 1.000004 6.946001
v -1.979783 1.000004 7.946000
v -2.979782 1.000004 7.946000
v -2.979782 1.000004 6.946000
usemtl Plain
s off
f 185//1 186//1 187//1 188//1
f 189//2 192//2 191//2 190//2
f 185//7 189//7 190//7 186//7
f 186//8 190//8 191//8 187//8
f 187//5 191//5 192//5 188//5
f 189//9 185//9 188//9 192//9
o Cube.020
v 0.082990 0.925000 6.486000
v 0.082990 0.925000 8.486000
v -3.917009 0.925000 8.486000
v -3.917008 0.925000 6.486000
v 0.082991 1.075000 6.486001
v 0.082988 1.075000 8.486001
v -3.917009 1.075000 8.486000
v -3.917008 1.075000 6.486000
vn 1.000000 0.000001 0.000001
vn -0.000000 -0.000003 1.000000
vn -1.000000 -0.000004 -0.000000
vn 0.000000 0.000003 -1.000000
usemtl Plain
s off
f 193//1 194//1 195//1 196//1
f 197//2 200//2 199//2 198//2
f 193//45 197//45 198//45 194//45
f 194//46 198//46 199//46 195//46
f 195//47 199//47 200//47 196//47
f 197//48 193//48 196//48 200//48
o Cube.019
v 3.054121 0.000000 6.969000
v 3.054121 0.000000 7.968999
v 2.054121 0.000000 7.968999
v 2.054121 0.000000 6.969000
v 3.054121 1.000000 6.969000
v 3.054121 1.000000 7.969000
v 2.054121 1.000000 7.968999
v 2.054121 1.000000 6.969000
usemtl Plain
s off
f 201//1 202//1 203//1 204//1
f 205//2 208//2 207//2 206//2
f 201//7 205//7 206//7 202//7
f 202//8 206//8 207//8 203//8
f 203//5 207//5 208//5 204//5
f 205//9 201//9 204//9 208//9
o Cube.018
v 3.459818 0.925000 6.486000
v 3.459818 0.925000 8.486000
v -0.540180 0.925000 8.486000
v -0.540179 0.925000 6.486000
v 3.459819 1.075000 6.486001
v 3.459817 1.075000 8.486001
v -0.540180 1.075000 8.486000
v -0.540180 1.075000 6.486000
vn 1.000000 0.000002 0.000001
usemtl Plain
s off
f 209//1 210//1 211//1 212//1
f 213//2 216//2 215//2 214//2
f 209//49 213//49 214//49 210//49
f 210//46 214//46 215//46 211//46
f 211//47 215//47 216//47 212//47
f 213//48 209//48 212//48 216//48
o Cube.017
v 7.281346 1.999654 6.486001
v 7.281346 1.999654 8.485999
v 3.433013 0.908637 8.485999
v 3.433014 0.908637 6.486000
v 7.240434 2.143967 6.486001
v 7.240432 2.143967 8.486000
v 3.392100 1.052950 8.485999
v 3.392100 1.052950 6.486001
vn 0.272754 -0.962084 0.000000
vn -0.272754 0.962084 -0.000000
vn 0.962083 0.272756 0.000001
vn 0.000001 -0.000003 1.000000
vn -0.962083 -0.272758 -0.000000
vn -0.000001 0.000003 -1.000000
usemtl Plain
s off
f 217//50 218//50 219//50 220//50
f 221//51 224//51 223//51 222//51
f 217//52 221//52 222//52 218//52
f 218//53 222//53 223//53 219//53
f 219//54 223//54 224//54 220//54
f 221//55 217//55 220//55 224//55
o Cube.016
v 8.101000 0.000000 6.974000
v 8.101000 0.000000 7.974000
v 7.101000 0.000000 7.974000
v 7.101000 0.000000 6.974000
v 8.101000 2.000000 6.974000
v 8.100999 2.000000 7.974000
v 7.101000 2.000000 7.974000
v 7.101000 2.000000 6.974000
usemtl Plain
s off
f 225//1 226//1 227//1 228//1
f 229//2 232//2 231//2 230//2
f 225//7 229//7 230//7 226//7
f 226//8 230//8 231//8 227//8
f 227//5 231//5 232//5 228//5
f 229//9 225//9 228//9 232//9
o Cube.015
v -7.101000 0.000000 6.974000
v -7.101000 0.000000 7.974000
v -8.101000 0.000000 7.974000
v -8.101000 0.000000 6.974000
v -7.101000 2.000000 6.974000
v -7.101000 2.000000 7.974000
v -8.101000 2.000000 7.974000
v -8.101000 2.000000 6.974000
usemtl Plain
s off
f 233//1 234//1 235//1 236//1
f 237//2 240//2 239//2 238//2
f 233//7 237//7 238//7 234//7
f 234//8 238//8 239//8 235//8
f 235//5 239//5 240//5 236//5
f 237//9 233//9 236//9 240//9
o Cube.014
v -0.576001 0.910328 -6.543808
v -0.576001 -0.319774 -3.807600
v -2.576000 -0.319774 -3.807600
v -2.575999 0.910328 -6.543809
v -0.576000 1.047138 -6.482303
v -0.576001 -0.182964 -3.746094
v -2.576000 -0.182964 -3.746095
v -2.575999 1.047138 -6.482303
vn 0.000000 -0.912070 -0.410034
vn 0.000000 0.912070 0.410034
vn -0.000000 -0.410036 0.912069
vn -1.000000 -0.000001 -0.000000
vn 0.000000 0.410037 -0.912069
usemtl Plain
s off
f 241//56 242//56 243//56 244//56
f 245//57 248//57 247//57 246//57
f 241//7 245//7 246//7 242//7
f 242//58 246//58 247//58 243//58
f 243//59 247//59 248//59 244//59
f 245//60 241//60 244//60 248//60
o Cube.013
v -7.101000 0.000000 -7.973794
v -7.101000 0.000000 -6.973794
v -8.101000 0.000000 -6.973794
v -8.101000 0.000000 -7.973794
v -7.101000 2.000000 -7.973794
v -7.101000 2.000000 -6.973794
v -8.101000 2.000000 -6.973794
v -8.101000 2.000000 -7.973794
usemtl Plain
s off
f 249//1 250//1 251//1 252//1
f 253//2 256//2 255//2 254//2
f 249//7 253//7 254//7 250//7
f 250//8 254//8 255//8 251//8
f 251//5 255//5 256//5 252//5
f 253//9 249//9 252//9 256//9
o Cube.012
v 0.082990 0.925000 -8.485674
v 0.082990 0.925000 -6.485674
v -3.917009 0.925000 -6.485674
v -3.917008 0.925000 -8.485674
v 0.082991 1.075000 -8.485673
v 0.082988 1.075000 -6.485673
v -3.917009 1.075000 -6.485674
v -3.917008 1.075000 -8.485674
usemtl Plain
s off
f 257//1 258//1 259//1 260//1
f 261//2 264//2 263//2 262//2
f 257//45 261//45 262//45 258//45
f 258//8 262//8 263//8 259//8
f 259//47 263//47 264//47 260//47
f 261//48 257//48 260//48 264//48
o Cube.011
v -1.979782 0.000004 -7.946367
v -1.979782 0.000004 -6.946368
v -2.979782 0.000004 -6.946368
v -2.979782 0.000004 -7.946367
v -1.979782 1.000004 -7.946367
v -1.979783 1.000004 -6.946367
v -2.979782 1.000004 -6.946368
v -2.979782 1.000004 -7.946367
usemtl Plain
s off
f 265//1 266//1 267//1 268//1
f 269//2 272//2 271//2 270//2
f 265//7 269//7 270//7 266//7
f 266//8 270//8 271//8 267//8
f 267//5 271//5 272//5 268//5
f 269//9 265//9 268//9 272//9
o Cube.010
v -0.009931 0.000000 -7.923999
v -0.009931 0.000000 -6.924000
v -1.009930 0.000000 -6.924000
v -1.009930 0.000000 -7.924000
v -0.009930 1.000000 -7.923999
v -0.009931 1.000000 -6.924000
v -1.009930 1.000000 -6.924000
v -1.009930 1.000000 -7.924000
usemtl Plain
s off
f 273//1 274//1 275//1 276//1
f 277//2 280//2 279//2 278//2
f 273//7 277//7 278//7 274//7
f 274//8 278//8 279//8 275//8
f 275//5 279//5 280//5 276//5
f 277//9 273//9 276//9 280//9
o Cube.009
v -7.281624 1.999654 -6.485677
v -7.281621 1.999654 -8.485676
v -3.433289 0.908637 -8.485671
v -3.433292 0.908637 -6.485672
v -7.240712 2.143967 -6.485677
v -7.240707 2.143967 -8.485677
v -3.392375 1.052950 -8.485671
v -3.392378 1.052950 -6.485672
vn 0.000000 -0.000003 -1.000000
usemtl Plain
s off
f 281//33 282//33 283//33 284//33
f 285//34 288//34 287//34 286//34
f 281//35 285//35 286//35 282//35
f 282//61 286//61 287//61 283//61
f 283//37 287//37 288//37 284//37
f 285//38 281//38 284//38 288//38
o Cube.008_Cube
v 7.978370 -0.164387 -8.163983
v 7.978370 -0.164387 7.836008
v -8.021623 -0.164387 7.836007
v -8.021619 -0.164387 -8.163986
v 7.978374 -0.014387 -8.163980
v 7.978365 -0.014387 7.836013
v -8.021625 -0.014387 7.836006
v -8.021622 -0.014387 -8.163984
vn -0.000000 -0.000013 1.000000
vn -1.000000 -0.000016 -0.000000
vn 0.000000 0.000019 -1.000000
usemtl Grass
s off
f 289//1 290//1 291//1 292//1
f 293//2 296//2 295//2 294//2
f 289//7 293//7 294//7 290//7
f 290//62 294//62 295//62 291//62
f 291//63 295//63 296//63 292//63
f 293//64 289//64 292//64 296//64
o Cube.007_Cube.008
v 2.576261 0.910328 -6.543808
v 2.576261 -0.319774 -3.807600
v 0.576262 -0.319774 -3.807600
v 0.576262 0.910328 -6.543809
v 2.576262 1.047138 -6.482303
v 2.576260 -0.182964 -3.746094
v 0.576262 -0.182964 -3.746095
v 0.576262 1.047138 -6.482303
vn -1.000000 -0.000002 -0.000001
usemtl Plain
s off
f 297//56 298//56 299//56 300//56
f 301//57 304//57 303//57 302//57
f 297//45 301//45 302//45 298//45
f 298//58 302//58 303//58 299//58
f 299//65 303//65 304//65 300//65
f 301//60 297//60 300//60 304//60
o Cube.006_Cube.007
v 7.281346 1.999654 -8.485673
v 7.281346 1.999654 -6.485674
v 3.433013 0.908637 -6.485674
v 3.433014 0.908637 -8.485674
v 7.240434 2.143967 -8.485673
v 7.240432 2.143967 -6.485674
v 3.392100 1.052950 -6.485675
v 3.392100 1.052950 -8.485674
usemtl Plain
s off
f 305//50 306//50 307//50 308//50
f 309//51 312//51 311//51 310//51
f 305//52 309//52 310//52 306//52
f 306//8 310//8 311//8 307//8
f 307//54 311//54 312//54 308//54
f 309//9 305//9 308//9 312//9
o Cube.005_Cube.006
v 3.459818 0.925000 -8.485674
v 3.459818 0.925000 -6.485674
v -0.540180 0.925000 -6.485674
v -0.540179 0.925000 -8.485674
v 3.459819 1.075000 -8.485673
v 3.459817 1.075000 -6.485673
v -0.540180 1.075000 -6.485674
v -0.540180 1.075000 -8.485674
usemtl Plain
s off
f 313//1 314//1 315//1 316//1
f 317//2 320//2 319//2 318//2
f 313//49 317//49 318//49 314//49
f 314//8 318//8 319//8 315//8
f 315//47 319//47 320//47 316//47
f 317//48 313//48 316//48 320//48
o Cube.004_Cube.005
v 0.997766 0.000000 -7.995215
v 0.997766 0.000000 -6.995216
v -0.002234 0.000000 -6.995216
v -0.002233 0.000000 -7.995216
v 0.997766 1.000000 -7.995215
v 0.997766 1.000000 -6.995216
v -0.002234 1.000000 -6.995216
v -0.002233 1.000000 -7.995215
usemtl Plain
s off
f 321//1 322//1 323//1 324//1
f 325//2 328//2 327//2 326//2
f 321//7 325//7 326//7 322//7
f 322//8 326//8 327//8 323//8
f 323//5 327//5 328//5 324//5
f 325//9 321//9 324//9 328//9
o Cube.003_Cube.004
v 3.054121 0.000000 -7.968699
v 3.054121 0.000000 -6.968700
v 2.054121 0.000000 -6.968700
v 2.054121 0.000000 -7.968700
v 3.054121 1.000000 -7.968699
v 3.054121 1.000000 -6.968700
v 2.054121 1.000000 -6.968700
v 2.054121 1.000000 -7.968699
usemtl Plain
s off
f 329//1 330//1 331//1 332//1
f 333//2 336//2 335//2 334//2
f 329//7 333//7 334//7 330//7
f 330//8 334//8 335//8 331//8
f 331//5 335//5 336//5 332//5
f 333//9 329//9 332//9 336//9
o Cube.002_Cube.003
v 4.802641 0.000000 -0.970988
v 4.802641 0.000000 1.029012
v 2.802641 0.000000 1.029012
v 2.802642 0.000000 -0.970988
v 4.802642 2.000000 -0.970987
v 4.802641 2.000000 1.029013
v 2.802641 2.000000 1.029012
v 2.802642 2.000000 -0.970988
vt 0.000000 0.000000
vt 1.000000 0.000000
vt 1.000000 1.000000
vt 0.000000 1.000000
usemtl Plain
s off
f 337/1/1 338/2/1 339/3/1 340/4/1
f 341/1/2 344/2/2 343/3/2 342/4/2
f 337/1/7 341/2/7 342/3/7 338/4/7
f 338/1/8 342/2/8 343/3/8 339/4/8
f 339/1/5 343/2/5 344/3/5 340/4/5
f 341/1/9 337/2/9 340/3/9 344/4/9
o Cube.001_Cube.002
v 8.101462 0.000000 -7.973794
v 8.101462 0.000000 -6.973794
v 7.101463 0.000000 -6.973794
v 7.101463 0.000000 -7.973794
v 8.101463 2.000000 -7.973794
v 8.101462 2.000000 -6.973794
v 7.101463 2.000000 -6.973794
v 7.101463 2.000000 -7.973794
usemtl Plain
s off
f 345//1 346//1 347//1 348//1
f 349//2 352//2 351//2 350//2
f 345//7 349//7 350//7 346//7
f 346//8 350//8 351//8 347//8
f 347//5 351//5 352//5 348//5
f 349//9 345//9 348//9 352//9
o Cube_Cube.001
v -2.655292 0.000000 -0.527376
v -2.655292 0.000000 0.472624
v -3.655291 0.000000 0.472624
v -3.655291 0.000000 -0.527376
v -2.655291 1.000000 -0.527375
v -2.655292 1.000000 0.472624
v -3.655291 1.000000 0.472624
v -3.655291 1.000000 -0.527376
vt 0.000000 0.000000
vt 1.000000 0.000000
vt 1.000000 1.000000
vt 0.000000 1.000000
usemtl Plain
s off
f 353/5/1 354/6/1 355/7/1 356/8/1
f 357/5/2 360/6/2 359/7/2 358/8/2
f 353/5/7 357/6/7 358/7/7 354/8/7
f 354/5/8 358/6/8 359/7/8 355/8/8
f 355/5/5 359/6/5 360/7/5 356/8/5
f 357/5/9 353/6/9 356/7/9 360/8/9
